<svg xmlns="http://www.w3.org/2000/svg" viewBox="0 0 3254.55 1039.61"><defs><style>.cls-1{fill:#ec6c53;}.cls-2{fill:#262947;}</style></defs><g id="Layer_3" data-name="Layer 3"><path class="cls-1" d="M250,763.46c-5-15.81-1.2-30.16,10.69-41.74q70.13-67.79,140.75-135.06c3.63-3.43,4.52-6.18,2.91-11q-50.93-153-101.64-306c-1.72-5.17-1.31-8.42,2.78-12.31,11.65-11.08,22.8-22.68,34.79-34.72,54.78,88.94,109,177.06,163.55,265.57l68.43-65.66C516.7,292,460.22,161.89,404.66,31.38,396.35,11.89,382.83.59,365.17,0c-25,0-40.43,12.4-48.28,36Q160.47,505.29,4.15,974.67c-7.28,17.63-5.43,39.4,9.09,52.45L259.92,780.43A41.44,41.44,0,0,1,250,763.46Z"/><path class="cls-2" d="M1004.52,723q-469.6,156.23-939,313.14c-22,7.38-40.56,2.17-52.32-9.07L259.93,780.42c16,16.43,45.21,15.81,60.42-2.25q66.5-69.48,133-138.9c3.86-4.1,7-4.63,12.2-2.9Q550.71,664.95,636,693q68.46,22.65,137,45.27c3,1,5.15,1.63,7.81-1.09,12-12.26,24.28-24.28,37.07-36.95Q684.57,618.11,552.36,536.74c21.44-23.23,43.72-45.65,65.49-68.59Q814,551.76,1009.91,636C1051.72,650.79,1050.06,711.61,1004.52,723Z"/><path class="cls-2" d="M1180.09,709.75H1162l-69.46-338.81h36.25l43,225.88,45.38-225.88h35.49Z"/><path class="cls-2" d="M1287.13,705.19V507.61h-17.37V460.84h49.43V705.19Zm16.35-339q7.61,0,13,9.7t5.39,23.38q0,13.69-5.39,23.39t-13,9.7q-7.61,0-13-9.7t-5.38-23.39q0-13.68,5.38-23.38T1303.48,366.15Z"/><path class="cls-2" d="M1444.6,680.78a42.62,42.62,0,0,1-15,20.87q-10.71,8.1-22.37,8.1-21.93,0-34.48-19.73t-12.54-56q0-42.45,17.68-66.4t50.25-24q5.58,0,13.19,3.42,0-43.12-30.3-43.12-17.87,0-29.91,10.72l-6.84-44.26q16.35-14.15,38.91-14.15,31,0,45.5,25.44t14.45,96.4v52.25q0,48.82,10.9,61.37-3.93,12.32-8.74,15.17a21.27,21.27,0,0,1-11,2.85q-6.84,0-12.3-9.12A58.26,58.26,0,0,1,1444.6,680.78Zm-3-90.58q-8.11-3-12.17-3-37.52,0-37.52,44.27,0,32.85,21.17,32.85,28.51,0,28.52-51.33Z"/><path class="cls-2" d="M1510.18,767.93l20-44.49q16.61,27.38,37,27.38,13.69,0,22.57-7.3t8.87-20.08q0-21.68-19.65-21.67-5.33,0-15.84,2.28t-15.85,2.28q-32.7,0-32.7-42.21a55.48,55.48,0,0,1,5.45-23.73q5.45-11.62,12.68-17.11-23.2-27.15-23.2-76.89,0-39.24,16-64.91t39.29-25.66q18.26,0,30.55,12.32l12.42-26L1629.71,478l-15.08,19.85q7.86,21.45,7.86,50.65,0,41.74-14.14,66.73t-35.68,25a49,49,0,0,1-9.12-1.14l-5.2-1.37q-.88,0-6.78,4.9t-5.89,10.15q0,9.13,8.74,9.13,3.93,0,13.18-3.42t15.85-3.42q46.26,0,46.26,66.85,0,37-18.5,58.06T1566.59,801Q1535.41,801,1510.18,767.93Zm31.69-221.31q0,21.68,6.66,34.8t17.93,13.11q11.28,0,17.37-12.77t6.08-35.14q0-18.48-6.53-31.25t-16.92-12.78q-10.9,0-17.74,12.32T1541.87,546.62Z"/><path class="cls-2" d="M1653.47,767.93l20-44.49q16.6,27.38,37,27.38,13.7,0,22.57-7.3t8.87-20.08q0-21.68-19.65-21.67-5.32,0-15.84,2.28t-15.85,2.28q-32.7,0-32.7-42.21a55.48,55.48,0,0,1,5.45-23.73q5.45-11.62,12.68-17.11-23.21-27.15-23.2-76.89,0-39.24,16-64.91t39.3-25.66q18.24,0,30.54,12.32l12.43-26L1773,478l-15.08,19.85q7.86,21.45,7.86,50.65,0,41.74-14.13,66.73t-35.69,25a49,49,0,0,1-9.12-1.14l-5.2-1.37q-.89,0-6.78,4.9T1689,652.71q0,9.13,8.74,9.13,3.93,0,13.18-3.42t15.85-3.42q46.26,0,46.26,66.85,0,37-18.5,58.06T1709.87,801Q1678.69,801,1653.47,767.93Zm31.68-221.31q0,21.68,6.66,34.8t17.93,13.11q11.28,0,17.37-12.77t6.08-35.14q0-18.48-6.52-31.25t-16.93-12.78q-10.89,0-17.74,12.32T1685.15,546.62Z"/><path class="cls-2" d="M1815.38,705.19V507.61H1798V460.84h49.44V705.19Zm16.35-339q7.61,0,13,9.7t5.39,23.38q0,13.69-5.39,23.39t-13,9.7q-7.61,0-13-9.7t-5.39-23.39q0-13.68,5.39-23.38T1831.73,366.15Z"/><path class="cls-2" d="M1888.44,582.44q0-55.89,17.94-91t47.34-35.14q30.91,0,48,33.77t17.11,92.4q0,58.41-17.43,92.86t-47.72,34.45q-30.93,0-48.11-34.79T1888.44,582.44Zm33,0q0,80.77,32.32,80.77,14.82,0,23.51-21t8.68-59.78q0-79.62-32.19-79.62-14.84,0-23.58,21T1921.4,582.44Z"/><path class="cls-2" d="M2156.88,705.19V507.61h-17.37V460.84h49.43V705.19Zm16.35-339q7.61,0,13,9.7t5.39,23.38q0,13.69-5.39,23.39t-13,9.7q-7.61,0-13-9.7t-5.39-23.39q0-13.68,5.39-23.38T2173.23,366.15Z"/><path class="cls-2" d="M2326.14,705.19V564q0-31.25-6.65-45.63T2297.75,504q-7,0-14.89,7.07a48.28,48.28,0,0,0-12.36,17.57V705.19h-31.69V460.84h22.81l5.84,22.81q12.91-27.37,38.15-27.38,24.21,0,38.21,26.13t14,72.89v149.9Z"/><path class="cls-2" d="M2531.08,423.65V501.9h61.34v50.43h-61.34V652.49h84.16v52.7H2498.12V370.94h118.51v52.71Z"/><path class="cls-2" d="M2646.72,767.93l20-44.49q16.61,27.38,37,27.38,13.69,0,22.57-7.3t8.87-20.08q0-21.68-19.65-21.67-5.33,0-15.84,2.28t-15.85,2.28q-32.7,0-32.7-42.21a55.48,55.48,0,0,1,5.45-23.73q5.44-11.62,12.68-17.11-23.2-27.15-23.2-76.89,0-39.24,16-64.91t39.29-25.66q18.26,0,30.55,12.32l12.42-26L2766.25,478l-15.08,19.85q7.86,21.45,7.86,50.65,0,41.74-14.14,66.73t-35.68,25a49,49,0,0,1-9.12-1.14l-5.2-1.37q-.88,0-6.78,4.9t-5.89,10.15q0,9.13,8.74,9.13,3.93,0,13.18-3.42T2720,655q46.26,0,46.26,66.85,0,37-18.5,58.06T2703.13,801Q2671.95,801,2646.72,767.93Zm31.69-221.31q0,21.68,6.66,34.8T2703,594.53q11.28,0,17.37-12.77t6.08-35.14q0-18.48-6.53-31.25T2703,502.59q-10.9,0-17.74,12.32T2678.41,546.62Z"/><path class="cls-2" d="M2808.64,705.19V507.61h-17.37V460.84h49.44V705.19Zm16.35-339q7.61,0,13,9.7t5.39,23.38q0,13.69-5.39,23.39t-13,9.7q-7.6,0-13-9.7t-5.39-23.39q0-13.68,5.39-23.38T2825,366.15Z"/><path class="cls-2" d="M2895.39,506.7h-15.72V460.84h15.72V411.1l31.69-21v70.73h37.26V506.7h-37.26v107q0,26.24,4.56,37.08t16,10.83q11.41,0,21.29-11.18v52.48q-11,6.84-31.43,6.84t-31.18-20.65q-10.9-20.64-10.9-58.74Z"/><path class="cls-2" d="M3011.29,506.7h-15.72V460.84h15.72V411.1l31.69-21v70.73h37.26V506.7H3043v107q0,26.24,4.56,37.08t16,10.83q11.41,0,21.3-11.18v52.48q-11,6.84-31.44,6.84t-31.18-20.65q-10.91-20.64-10.9-58.74Z"/><path class="cls-2" d="M3113.5,582.44q0-55.89,17.94-91t47.34-35.14q30.93,0,48,33.77t17.11,92.4q0,58.41-17.43,92.86t-47.72,34.45q-30.93,0-48.1-34.79T3113.5,582.44Zm33,0q0,80.77,32.32,80.77,14.83,0,23.51-21t8.69-59.78q0-79.62-32.2-79.62-14.84,0-23.57,21T3146.46,582.44Z"/></g></svg>